<svg width="800" height="800" viewBox="0 0 800 800" xmlns="http://www.w3.org/2000/svg">
  <!-- Background -->
  <rect width="800" height="800" fill="#1a1a2e"/>
  
  <!-- Sunset Circle -->
  <defs>
    <radialGradient id="sunsetGradient" cx="50%" cy="50%">
      <stop offset="0%" style="stop-color:#ffeb3b;stop-opacity:1" />
      <stop offset="40%" style="stop-color:#ff9800;stop-opacity:1" />
      <stop offset="70%" style="stop-color:#ff5722;stop-opacity:1" />
      <stop offset="100%" style="stop-color:#d84315;stop-opacity:1" />
    </radialGradient>
    
    <linearGradient id="oceanGradient" x1="0%" y1="0%" x2="0%" y2="100%">
      <stop offset="0%" style="stop-color:#0d47a1;stop-opacity:1" />
      <stop offset="100%" style="stop-color:#01579b;stop-opacity:1" />
    </linearGradient>
  </defs>
  
  <!-- Sun -->
  <circle cx="400" cy="380" r="140" fill="url(#sunsetGradient)"/>
  
  <!-- Sun Rays -->
  <g id="sun-rays" opacity="0.6">
    <line x1="400" y1="240" x2="400" y2="180" stroke="#ffeb3b" stroke-width="6" stroke-linecap="round"/>
    <line x1="540" y1="380" x2="600" y2="380" stroke="#ffeb3b" stroke-width="6" stroke-linecap="round"/>
    <line x1="260" y1="380" x2="200" y2="380" stroke="#ffeb3b" stroke-width="6" stroke-linecap="round"/>
    <line x1="499" y1="281" x2="541" y2="239" stroke="#ffeb3b" stroke-width="6" stroke-linecap="round"/>
    <line x1="301" y1="281" x2="259" y2="239" stroke="#ffeb3b" stroke-width="6" stroke-linecap="round"/>
  </g>
  
  <!-- Ocean Waves -->
  <ellipse cx="400" cy="480" rx="350" ry="80" fill="url(#oceanGradient)"/>
  <ellipse cx="400" cy="500" rx="320" ry="60" fill="#1565c0" opacity="0.8"/>
  <ellipse cx="400" cy="515" rx="290" ry="45" fill="#1976d2" opacity="0.6"/>
  
  <!-- Wave Highlights -->
  <path d="M 100 480 Q 200 470, 300 480 T 500 480 T 700 480" 
        stroke="#4fc3f7" 
        stroke-width="3" 
        fill="none"
        opacity="0.5"/>
  
  <!-- Palm Trees (left) -->
  <g id="palm-left" transform="translate(120, 450)">
    <!-- Trunk -->
    <path d="M 0 0 Q -5 30, 0 60 Q 5 90, 0 120" 
          stroke="#8d6e63" 
          stroke-width="8" 
          fill="none"/>
    
    <!-- Fronds -->
    <path d="M 0 0 Q -40 -20, -60 -10" 
          stroke="#2e7d32" 
          stroke-width="6" 
          fill="none" 
          stroke-linecap="round"/>
    <path d="M 0 0 Q -30 -35, -40 -50" 
          stroke="#2e7d32" 
          stroke-width="6" 
          fill="none" 
          stroke-linecap="round"/>
    <path d="M 0 0 Q 0 -40, 0 -60" 
          stroke="#2e7d32" 
          stroke-width="6" 
          fill="none" 
          stroke-linecap="round"/>
    <path d="M 0 0 Q 30 -35, 40 -50" 
          stroke="#2e7d32" 
          stroke-width="6" 
          fill="none" 
          stroke-linecap="round"/>
    <path d="M 0 0 Q 40 -20, 60 -10" 
          stroke="#2e7d32" 
          stroke-width="6" 
          fill="none" 
          stroke-linecap="round"/>
  </g>
  
  <!-- Palm Trees (right) -->
  <g id="palm-right" transform="translate(680, 470)">
    <path d="M 0 0 Q 5 25, 0 50 Q -5 75, 0 100" 
          stroke="#8d6e63" 
          stroke-width="7" 
          fill="none"/>
    <path d="M 0 0 Q -35 -15, -50 -5" 
          stroke="#2e7d32" 
          stroke-width="5" 
          fill="none" 
          stroke-linecap="round"/>
    <path d="M 0 0 Q -25 -30, -30 -45" 
          stroke="#2e7d32" 
          stroke-width="5" 
          fill="none" 
          stroke-linecap="round"/>
    <path d="M 0 0 Q 0 -35, 0 -50" 
          stroke="#2e7d32" 
          stroke-width="5" 
          fill="none" 
          stroke-linecap="round"/>
    <path d="M 0 0 Q 25 -30, 30 -45" 
          stroke="#2e7d32" 
          stroke-width="5" 
          fill="none" 
          stroke-linecap="round"/>
  </g>
  
  <!-- Text: GULF COAST -->
  <text x="400" y="180" 
        font-family="Brush Script MT, cursive" 
        font-size="68" 
        fill="#ffffff"
        text-anchor="middle"
        font-weight="bold">
    Gulf Coast
  </text>
  
  <!-- Text: CHARTERS -->
  <text x="400" y="680" 
        font-family="Impact, Arial Black, sans-serif" 
        font-size="64" 
        font-weight="bold"
        fill="#ffffff"
        text-anchor="middle"
        letter-spacing="10">
    CHARTERS
  </text>
  
  <!-- Tagline -->
  <text x="400" y="730" 
        font-family="Arial, sans-serif" 
        font-size="22" 
        fill="#ffeb3b"
        text-anchor="middle"
        font-style="italic">
    Where Paradise Meets Adventure
  </text>
</svg>
